<svg xmlns="http://www.w3.org/2000/svg" viewBox="0 0 64 64" shape-rendering="crispEdges">
  <!-- 神官戦士 -->
  <!-- 頭 -->
  <rect x="20" y="8" width="24" height="18" fill="#f5c89a"/>
  <!-- 目 -->
  <rect x="24" y="14" width="4" height="4" fill="#f48fb1"/>
  <rect x="36" y="14" width="4" height="4" fill="#f48fb1"/>
  <!-- ヘルメット -->
  <rect x="18" y="4" width="28" height="8" fill="#ad1457"/>
  <rect x="16" y="8" width="4" height="8" fill="#ad1457"/>
  <rect x="44" y="8" width="4" height="8" fill="#ad1457"/>
  <!-- 飾り -->
  <rect x="18" y="4" width="28" height="2" fill="#f48fb1"/>
  <!-- 鎧 -->
  <rect x="12" y="26" width="40" height="22" fill="#880e4f"/>
  <rect x="16" y="26" width="32" height="22" fill="#ad1457"/>
  <!-- 胸紋様 -->
  <rect x="24" y="30" width="16" height="14" fill="#880e4f"/>
  <rect x="27" y="33" width="10" height="8" fill="#f48fb1" opacity="0.7"/>
  <!-- 腕 -->
  <rect x="6" y="26" width="8" height="22" fill="#880e4f"/>
  <rect x="50" y="26" width="8" height="22" fill="#880e4f"/>
  <!-- 手 -->
  <rect x="6" y="46" width="8" height="5" fill="#f5c89a"/>
  <rect x="50" y="46" width="8" height="5" fill="#f5c89a"/>
  <!-- 武器 -->
  <rect x="52" y="16" width="4" height="32" fill="#ad1457"/>
  <rect x="48" y="24" width="12" height="4" fill="#f48fb1"/>
  <rect x="52" y="12" width="4" height="6" fill="#e0e0e0"/>
  <!-- 足 -->
  <rect x="18" y="48" width="12" height="12" fill="#880e4f"/>
  <rect x="34" y="48" width="12" height="12" fill="#880e4f"/>
  <rect x="16" y="57" width="16" height="4" fill="#212121"/>
  <rect x="32" y="57" width="16" height="4" fill="#212121"/>
</svg>
